<?xml version="1.0" encoding="UTF-8" standalone="no"?>
<!-- Created with Inkscape (http://www.inkscape.org/) -->

<svg
   xmlns:dc="http://purl.org/dc/elements/1.1/"
   xmlns:cc="http://creativecommons.org/ns#"
   xmlns:rdf="http://www.w3.org/1999/02/22-rdf-syntax-ns#"
   xmlns:svg="http://www.w3.org/2000/svg"
   xmlns="http://www.w3.org/2000/svg"
   xmlns:sodipodi="http://sodipodi.sourceforge.net/DTD/sodipodi-0.dtd"
   xmlns:inkscape="http://www.inkscape.org/namespaces/inkscape"
   width="744.09448819"
   height="1052.3622047"
   id="svg2"
   version="1.1"
   inkscape:version="0.48.2 r9819"
   sodipodi:docname="general_venn_diagram.svg">
  <defs
     id="defs4">
    <marker
       inkscape:stockid="DotL"
       orient="auto"
       refY="0.0"
       refX="0.0"
       id="DotL"
       style="overflow:visible">
      <path
         id="path5366"
         d="M -2.5,-1.0 C -2.5,1.7600000 -4.7400000,4.0 -7.5,4.0 C -10.260000,4.0 -12.5,1.7600000 -12.5,-1.0 C -12.5,-3.7600000 -10.260000,-6.0 -7.5,-6.0 C -4.7400000,-6.0 -2.5,-3.7600000 -2.5,-1.0 z "
         style="fill-rule:evenodd;stroke:#000000;stroke-width:1.0pt;marker-start:none;marker-end:none"
         transform="scale(0.8) translate(7.4, 1)" />
    </marker>
  </defs>
  <sodipodi:namedview
     id="base"
     pagecolor="#ffffff"
     bordercolor="#666666"
     borderopacity="1.0"
     inkscape:pageopacity="0.0"
     inkscape:pageshadow="2"
     inkscape:zoom="0.98994949"
     inkscape:cx="338.01583"
     inkscape:cy="819.49837"
     inkscape:document-units="px"
     inkscape:current-layer="layer1"
     showgrid="false"
     inkscape:window-width="1024"
     inkscape:window-height="719"
     inkscape:window-x="-4"
     inkscape:window-y="-4"
     inkscape:window-maximized="1" />
  <metadata
     id="metadata7">
    <rdf:RDF>
      <cc:Work
         rdf:about="">
        <dc:format>image/svg+xml</dc:format>
        <dc:type
           rdf:resource="http://purl.org/dc/dcmitype/StillImage" />
        <dc:title></dc:title>
      </cc:Work>
    </rdf:RDF>
  </metadata>
  <g
     inkscape:label="Layer 1"
     inkscape:groupmode="layer"
     id="layer1">
    <path
       sodipodi:type="arc"
       style="fill:none;stroke:#000000;stroke-width:1;stroke-linecap:butt;stroke-miterlimit:4;stroke-opacity:1;stroke-dasharray:none;stroke-dashoffset:0"
       id="path2987"
       sodipodi:cx="306.5813"
       sodipodi:cy="244.74522"
       sodipodi:rx="142.93658"
       sodipodi:ry="142.93658"
       d="m 449.51788,244.74522 a 142.93658,142.93658 0 1 1 -285.87317,0 142.93658,142.93658 0 1 1 285.87317,0 z" />
    <path
       sodipodi:type="arc"
       style="fill:none;stroke:#000000;stroke-width:1;stroke-linecap:butt;stroke-miterlimit:4;stroke-opacity:1;stroke-dasharray:none;stroke-dashoffset:0"
       id="path2989"
       sodipodi:cx="314.15744"
       sodipodi:cy="259.39243"
       sodipodi:rx="97.984795"
       sodipodi:ry="97.984795"
       d="m 412.08958,262.60441 a 97.984795,97.984795 0 1 1 0.0274,-0.9858"
       sodipodi:start="0.03278634"
       sodipodi:end="6.305907"
       sodipodi:open="true"
       transform="matrix(0.75650856,0,0,0.7384051,14.61656,53.208534)" />
    <path
       sodipodi:type="arc"
       style="fill:none;stroke:#000000;stroke-width:1;stroke-linecap:butt;stroke-miterlimit:4;stroke-opacity:1;stroke-dasharray:none;stroke-dashoffset:0"
       id="path2989-1"
       sodipodi:cx="314.15744"
       sodipodi:cy="259.39243"
       sodipodi:rx="97.984795"
       sodipodi:ry="97.984795"
       d="m 412.08958,262.60441 a 97.984795,97.984795 0 1 1 0.0274,-0.9858"
       sodipodi:start="0.03278634"
       sodipodi:end="6.305907"
       sodipodi:open="true"
       transform="matrix(0.94358742,0,0,0.94358742,42.471406,-0.01420558)" />
    <path
       sodipodi:type="arc"
       style="fill:none;stroke:#000000;stroke-width:1;stroke-linecap:butt;stroke-miterlimit:4;stroke-opacity:1;stroke-dasharray:none;stroke-dashoffset:0"
       id="path3009"
       sodipodi:cx="242.43661"
       sodipodi:cy="251.31122"
       sodipodi:rx="32.324883"
       sodipodi:ry="32.324883"
       d="m 274.74413,252.37084 a 32.324883,32.324883 0 1 1 0.009,-0.32521"
       sodipodi:start="0.03278634"
       sodipodi:end="6.305907"
       sodipodi:open="true"
       transform="translate(0,-6.5659943)" />
    <path
       style="fill:#00ff00;fill-opacity:1;fill-rule:nonzero;stroke:#000000;stroke-width:1.01015258000000000;stroke-linecap:butt;stroke-miterlimit:4;stroke-opacity:1;stroke-dasharray:none;stroke-dashoffset:0"
       d="m 250.79357,268.7853 c -4.06556,-14.51893 -4.37154,-28.62297 -0.95784,-44.15272 2.18886,-9.9577 2.18546,-9.95403 6.90975,-7.46463 6.15244,3.24194 10.53348,7.88185 13.72472,14.5357 7.27124,15.16079 1.05093,33.09801 -14.17074,40.86353 l -3.89104,1.98506 -1.61485,-5.76694 z"
       id="path3013"
       inkscape:connector-curvature="0" />
    <path
       style="fill:#ff0000;fill-opacity:1;fill-rule:nonzero;stroke:#000000;stroke-width:1.01015258000000000;stroke-linecap:butt;stroke-miterlimit:4;stroke-opacity:1;stroke-dasharray:none;stroke-dashoffset:0"
       d="m 232.46748,274.324 c -7.9455,-3.16931 -14.58901,-8.90179 -18.03149,-15.55881 -3.9345,-7.60848 -3.97618,-20.17004 -0.0918,-27.68151 2.42849,-4.69617 9.45121,-11.9221 13.68702,-14.08305 4.47654,-2.28376 13.2339,-3.79032 18.47543,-3.1784 3.53322,0.41248 3.75017,0.62828 3.11799,3.10146 -4.08408,15.97774 -4.81833,33.8054 -1.92771,46.80497 2.6901,12.09778 3.00628,11.38203 -5.12787,11.60784 -3.88909,0.10796 -8.43477,-0.34766 -10.10152,-1.0125 z"
       id="path3015"
       inkscape:connector-curvature="0" />
    <path
       style="fill:#00ffff;fill-opacity:1;fill-rule:nonzero;stroke:#000000;stroke-width:1.01015258000000000;stroke-linecap:butt;stroke-miterlimit:4;stroke-opacity:1;stroke-dasharray:none;stroke-dashoffset:0"
       d="m 236.50809,314.63334 c -33.86359,-7.74638 -57.07362,-36.13903 -57.07362,-69.81771 0,-15.24662 3.31779,-26.27636 11.73407,-39.00902 8.67732,-13.12758 22.57747,-23.62179 38.26848,-28.89157 7.25955,-2.43811 9.57049,-2.71793 22.72843,-2.75208 9.72094,-0.0252 15.92726,0.415 18.45316,1.30892 l 3.80594,1.34693 -4.67703,5.20198 c -2.57237,2.86109 -5.93263,7.02795 -7.46725,9.25968 -3.30823,4.811 -10.11482,17.96293 -10.11482,19.5442 0,0.7071 -2.66546,1.09499 -7.35617,1.0705 -8.63362,-0.0451 -11.7445,0.59861 -17.89764,3.70327 -8.69026,4.38481 -15.63857,13.92497 -17.02856,23.38055 -3.15563,21.46661 12.74955,39.5508 33.8681,38.50803 l 7.24309,-0.35764 3.36351,7.0377 c 4.02997,8.43217 8.52553,15.2367 15.18546,22.98488 l 4.94049,5.7478 -3.83553,1.15044 c -6.09189,1.82721 -27.13062,2.18658 -34.14011,0.58314 l 0,0 z"
       id="path3017"
       inkscape:connector-curvature="0" />
    <path
       style="fill:#ffff00;fill-opacity:1;fill-rule:nonzero;stroke:#000000;stroke-width:1.01015258000000000;stroke-linecap:butt;stroke-miterlimit:4;stroke-opacity:1;stroke-dasharray:none;stroke-dashoffset:0"
       d="m 323.22117,334.75994 c -13.88686,-2.5199 -27.98252,-8.57837 -38.99337,-16.75978 l -5.81837,-4.32324 7.56907,-3.73596 c 54.86491,-27.08037 54.39397,-104.17519 -0.79916,-130.82622 l -6.88714,-3.32558 7.39222,-5.19559 c 9.23348,-6.48972 20.00025,-11.64872 29.99466,-14.37222 6.08549,-1.65831 10.8825,-2.11922 22.85441,-2.19591 18.37005,-0.11768 24.42362,1.22854 40.4061,8.98567 12.32024,5.97965 21.52636,13.02247 29.50657,22.57298 14.69052,17.58123 21.50614,36.62452 21.50614,60.08958 0,55.85464 -51.76363,99.06067 -106.73113,89.08627 z"
       id="path5221"
       inkscape:connector-curvature="0" />
    <path
       style="fill:#b3b3b3;fill-opacity:1;fill-rule:nonzero;stroke:#000000;stroke-width:1.01015258000000000;stroke-linecap:butt;stroke-miterlimit:4;stroke-opacity:1;stroke-dasharray:none;stroke-dashoffset:0"
       d="m 271.82543,306.70747 c -5.68829,-6.32306 -11.36327,-14.52978 -14.84363,-21.46574 -4.27244,-8.51447 -4.28561,-9.01723 -0.27427,-10.46775 4.82712,-1.74551 12.71822,-9.68225 15.63378,-15.7242 3.5274,-7.3099 3.97049,-18.37972 1.04592,-26.13073 -2.63495,-6.98345 -10.80902,-15.8989 -16.44546,-17.93707 -4.36533,-1.57852 -4.35153,-1.78722 0.79773,-12.06817 3.68567,-7.35875 10.62219,-16.93716 16.03822,-22.14664 l 3.59646,-3.4593 8.86138,4.38631 c 7.25489,3.59111 10.51536,6.04956 17.98483,13.56083 12.8725,12.94455 18.42244,24.18838 20.71885,41.97513 1.78167,13.79985 -1.8545,30.66981 -9.31521,43.21775 -4.49698,7.56331 -14.08036,17.75062 -21.32896,22.67306 -4.83561,3.28379 -15.75533,8.88982 -17.31607,8.88982 -0.21047,0 -2.52958,-2.38648 -5.15357,-5.3033 z"
       id="path5223"
       inkscape:connector-curvature="0" />
    <text
       xml:space="preserve"
       style="font-size:12px;font-style:normal;font-variant:normal;font-weight:normal;font-stretch:normal;line-height:125%;letter-spacing:0px;word-spacing:0px;fill:#000000;fill-opacity:1;stroke:none;font-family:Arial;-inkscape-font-specification:Arial"
       x="194.28572"
       y="247.61375"
       id="text5257"
       sodipodi:linespacing="125%"><tspan
         sodipodi:role="line"
         id="tspan5259"
         x="194.28572"
         y="247.61375">B<tspan
   style="font-size:65.00091553%;baseline-shift:sub"
   id="tspan5261">1</tspan></tspan></text>
    <text
       xml:space="preserve"
       style="font-size:12px;font-style:normal;font-variant:normal;font-weight:normal;font-stretch:normal;line-height:125%;letter-spacing:0px;word-spacing:0px;fill:#000000;fill-opacity:1;stroke:none;font-family:Arial;-inkscape-font-specification:Arial"
       x="300.45441"
       y="400.79074"
       id="text5263"
       sodipodi:linespacing="125%"><tspan
         sodipodi:role="line"
         id="tspan5265"
         x="300.45441"
         y="400.79074">A<tspan
   style="font-size:65.00091553%;baseline-shift:sub"
   id="tspan5267">2</tspan></tspan></text>
    <path
       style="fill:#0000ff;fill-opacity:1;fill-rule:nonzero;stroke:#000000;stroke-width:0.71428572999999995;stroke-linecap:butt;stroke-miterlimit:4;stroke-opacity:1;stroke-dasharray:none;stroke-dashoffset:0"
       d="m 272.79832,306.45412 c -5.74419,-6.50231 -11.19489,-14.30157 -14.57336,-20.85266 -4.49008,-8.70656 -4.48574,-8.50967 -0.23522,-10.66357 4.21833,-2.13759 11.15944,-8.90443 13.85923,-13.51127 2.95392,-5.0405 4.19905,-11.12359 3.87957,-18.95378 -0.23636,-5.79325 -0.61031,-7.52422 -2.47709,-11.46617 -2.83132,-5.97872 -9.70507,-13.44804 -14.858,-16.14537 -4.5823,-2.39863 -4.58172,-1.9142 -0.0132,-10.99749 3.75471,-7.46516 8.94051,-14.89204 14.68964,-21.03789 l 4.35867,-4.65943 7.60461,3.89753 c 10.66545,5.46627 21.87946,15.71223 29.09578,26.58407 12.33452,18.58273 13.5497,45.87203 2.98355,67.00143 -6.73456,13.46726 -19.39892,25.46496 -35.34383,33.4833 -2.04944,1.03061 -4.00129,1.87385 -4.33744,1.87385 -0.33616,0 -2.42098,-2.04865 -4.63295,-4.55255 l 0,0 z"
       id="path5277"
       inkscape:connector-curvature="0" />
    <path
       style="fill:#ffd5d5;fill-opacity:1;fill-rule:nonzero;stroke:#000000;stroke-width:0.71428572999999995;stroke-linecap:butt;stroke-miterlimit:4;stroke-opacity:1;stroke-dasharray:none;stroke-dashoffset:0"
       d="m 292.99497,386.28621 c -34.42209,-4.12798 -63.40719,-17.95583 -86.91631,-41.46495 -33.94068,-33.94068 -48.49255,-83.08451 -38.35451,-129.52888 7.37922,-33.80562 25.68707,-62.63513 52.97669,-83.42276 22.4564,-17.10596 47.33234,-26.52132 76.04413,-28.78214 33.0213,-2.60016 68.17952,7.80055 95.04393,28.11645 26.29486,19.88518 44.56314,47.59419 52.61317,79.80274 3.29461,13.1819 3.90611,18.53483 3.87591,33.92857 -0.0198,10.08814 -0.38628,16.3845 -1.24726,21.42857 -5.25353,30.77806 -18.75465,57.2355 -40.09888,78.57974 -21.1926,21.1926 -46.63982,34.37228 -77.25137,40.01019 -6.09985,1.12345 -30.91318,2.0247 -36.6855,1.33247 l 0,0 z m 62.80434,-49.94631 c 19.07053,-3.64476 35.85578,-12.54898 49.10189,-26.04752 12.55742,-12.79671 19.88726,-25.67151 24.20833,-42.5217 6.59684,-25.72461 1.90941,-52.72902 -13.06434,-75.26413 -8.13593,-12.24436 -23.19626,-25.25198 -36.824,-31.80491 -25.17221,-12.10412 -56.80421,-11.91587 -81.58337,0.48552 -5.5842,2.79476 -13.4104,7.84636 -17.69724,11.4231 l -3.41154,2.84641 -4.4456,-1.10225 c -18.8702,-4.67874 -36.7515,-2.83831 -53.73133,5.53028 -12.3947,6.10879 -21.25669,13.9957 -29.58272,26.32776 -8.12492,12.03417 -12.61275,30.89374 -10.86928,45.67684 3.86567,32.77762 27.1555,57.76751 60.08878,64.47504 8.17319,1.66463 25.03979,1.19151 32.86322,-0.92184 l 5.35714,-1.44713 3.57143,2.83996 c 14.99894,11.92696 32.17682,18.9011 51.42857,20.87978 5.20493,0.53496 18.48002,-0.20746 24.59006,-1.37521 z"
       id="path5279"
       inkscape:connector-curvature="0" />
    <text
       xml:space="preserve"
       style="font-size:12px;font-style:normal;font-variant:normal;font-weight:normal;font-stretch:normal;line-height:125%;letter-spacing:0px;word-spacing:0px;fill:#000000;fill-opacity:1;stroke:none;font-family:Arial;-inkscape-font-specification:Arial"
       x="243.14285"
       y="331.93362"
       id="text5281"
       sodipodi:linespacing="125%"><tspan
         sodipodi:role="line"
         id="tspan5283"
         x="243.14285"
         y="331.93362">A<tspan
   style="font-size:65.00091553%;baseline-shift:sub"
   id="tspan5285">1</tspan></tspan></text>
    <text
       xml:space="preserve"
       style="font-size:12px;font-style:normal;font-variant:normal;font-weight:normal;font-stretch:normal;line-height:125%;letter-spacing:0px;word-spacing:0px;fill:#000000;fill-opacity:1;stroke:none;font-family:Arial;-inkscape-font-specification:Arial"
       x="339"
       y="350.79074"
       id="text5287"
       sodipodi:linespacing="125%"><tspan
         sodipodi:role="line"
         id="tspan5289"
         x="339"
         y="350.79074">B<tspan
   style="font-size:65.00091553%;baseline-shift:sub"
   id="tspan5291">2</tspan></tspan></text>
    <text
       xml:space="preserve"
       style="font-size:12px;font-style:normal;font-variant:normal;font-weight:normal;font-stretch:normal;line-height:125%;letter-spacing:0px;word-spacing:0px;fill:#000000;fill-opacity:1;stroke:none;font-family:Arial;-inkscape-font-specification:Arial"
       x="461.0051"
       y="356.70154"
       id="text5293"
       sodipodi:linespacing="125%"><tspan
         sodipodi:role="line"
         x="461.0051"
         y="356.70154"
         id="tspan5297">Area of agreement</tspan></text>
    <path
       style="fill:none;stroke:#000000;stroke-width:1px;stroke-linecap:butt;stroke-linejoin:miter;stroke-opacity:1;marker-start:url(#DotL)"
       d="m 230.31478,243.22999 c -59.599,189.90868 -59.599,189.90868 -59.599,189.90868 l 0,0 0,0"
       id="path5745"
       inkscape:connector-curvature="0" />
    <text
       xml:space="preserve"
       style="font-size:12px;font-style:normal;font-variant:normal;font-weight:normal;font-stretch:normal;line-height:125%;letter-spacing:0px;word-spacing:0px;fill:#000000;fill-opacity:1;stroke:none;font-family:Arial;-inkscape-font-specification:Arial"
       x="132.32999"
       y="447.28082"
       id="text5747"
       sodipodi:linespacing="125%"><tspan
         sodipodi:role="line"
         x="132.32999"
         y="447.28082"
         id="tspan5755">Mitigations known to B, but</tspan><tspan
         sodipodi:role="line"
         x="132.32999"
         y="462.28082"
         id="tspan5763">not A, to be insufficient</tspan></text>
    <text
       xml:space="preserve"
       style="font-size:12px;font-style:normal;font-variant:normal;font-weight:normal;font-stretch:normal;line-height:125%;letter-spacing:0px;word-spacing:0px;fill:#000000;fill-opacity:1;stroke:none;font-family:Arial;-inkscape-font-specification:Arial"
       x="52.751289"
       y="113.72742"
       id="text5951"
       sodipodi:linespacing="125%"><tspan
         sodipodi:role="line"
         x="52.751289"
         y="113.72742"
         id="tspan5955">Residual risk agreed</tspan><tspan
         sodipodi:role="line"
         x="52.751289"
         y="128.72742"
         id="tspan5959">upon by A and B</tspan></text>
    <path
       style="fill:none;stroke:#000000;stroke-width:1px;stroke-linecap:butt;stroke-linejoin:miter;stroke-opacity:1;marker-start:url(#DotL)"
       d="M 210.11173,208.88481 C 98.994949,134.13352 98.994949,134.13352 98.994949,134.13352"
       id="path5961"
       inkscape:connector-curvature="0" />
    <text
       xml:space="preserve"
       style="font-size:12px;font-style:normal;font-variant:normal;font-weight:normal;font-stretch:normal;line-height:125%;letter-spacing:0px;word-spacing:0px;fill:#000000;fill-opacity:1;stroke:none;font-family:Arial;-inkscape-font-specification:Arial"
       x="466.69049"
       y="137.52946"
       id="text6145"
       sodipodi:linespacing="125%"><tspan
         sodipodi:role="line"
         x="466.69049"
         y="137.52946"
         id="tspan6153">Classified threat mitigatiions</tspan><tspan
         sodipodi:role="line"
         x="466.69049"
         y="152.52946"
         id="tspan6157">A isn´t cleared to know about</tspan></text>
    <text
       xml:space="preserve"
       style="font-size:12px;font-style:normal;font-variant:normal;font-weight:normal;font-stretch:normal;line-height:125%;letter-spacing:0px;word-spacing:0px;fill:#000000;fill-opacity:1;stroke:none;font-family:Arial;-inkscape-font-specification:Arial"
       x="371.73615"
       y="59.382233"
       id="text6525"
       sodipodi:linespacing="125%"><tspan
         sodipodi:role="line"
         x="371.73615"
         y="59.382233"
         id="tspan6529">Classified threats A isn´t</tspan><tspan
         sodipodi:role="line"
         x="371.73615"
         y="74.382233"
         id="tspan6533">cleared to know about</tspan></text>
    <path
       style="fill:none;stroke:#000000;stroke-width:1px;stroke-linecap:butt;stroke-linejoin:miter;stroke-opacity:1;marker-start:url(#DotL)"
       d="M 301.02546,132.11321 C 368.70568,78.575129 369.71583,78.575129 369.71583,78.575129"
       id="path6539"
       inkscape:connector-curvature="0" />
    <path
       style="fill:none;stroke:#000000;stroke-width:1px;stroke-linecap:butt;stroke-linejoin:miter;stroke-opacity:1;marker-start:url(#DotL)"
       d="M 259.6092,242.24015 C 454.56865,348.30616 454.56865,348.30616 454.56865,348.30616"
       id="path7089"
       inkscape:connector-curvature="0" />
    <path
       style="fill:none;stroke:#000000;stroke-width:1px;stroke-linecap:butt;stroke-linejoin:miter;stroke-opacity:1;marker-start:url(#DotL)"
       d="m 367.69553,211.2706 c 91.92388,-66.67006 91.92388,-66.67006 91.92388,-66.67006"
       id="path7457"
       inkscape:connector-curvature="0" />
    <text
       xml:space="preserve"
       style="font-size:12px;font-style:normal;font-variant:normal;font-weight:normal;font-stretch:normal;line-height:125%;letter-spacing:0px;word-spacing:0px;fill:#000000;fill-opacity:1;stroke:none;font-family:Arial;-inkscape-font-specification:Arial"
       x="478.83261"
       y="246.28076"
       id="text7651"
       sodipodi:linespacing="125%"><tspan
         sodipodi:role="line"
         x="478.83261"
         y="246.28076"
         id="tspan7843"
         style="font-style:italic">Information leakage hazard</tspan></text>
    <path
       style="fill:none;stroke:#000000;stroke-width:1px;stroke-linecap:butt;stroke-linejoin:miter;stroke-opacity:1;marker-start:url(#DotL)"
       d="m 301.02546,243.17529 c 171.72593,0 171.72593,0 171.72593,0"
       id="path7657"
       inkscape:connector-curvature="0" />
  </g>
</svg>
